HIERARCHY
ROOT Hips
{
	OFFSET 0.000000 0.000000 0.000000
	CHANNELS 6 Xposition Yposition Zposition Zrotation Yrotation Xrotation 
	JOINT LeftUpLeg_virtual
	{
		OFFSET 0.000000 0.000000 0.000000
		CHANNELS 3 Zrotation Yrotation Xrotation
		JOINT LeftUpLeg
		{
			OFFSET 8.479694 -4.795517 -0.379053
			CHANNELS 3 Zrotation Yrotation Xrotation
			JOINT LeftLeg
			{
				OFFSET 0.485052 -32.551468 0.112863
				CHANNELS 3 Zrotation Yrotation Xrotation
				JOINT LeftFoot
				{
					OFFSET 0.438033 -32.635670 -3.012641
					CHANNELS 3 Zrotation Yrotation Xrotation
					JOINT LeftToeBase
					{
						OFFSET 0.970169 -13.225353 11.864223
						CHANNELS 3 Zrotation Yrotation Xrotation
						End Site
						{
							OFFSET 0.000000 0.000000 0.000000
						}
					}
				}
			}
		}
	}
	JOINT RightUpLeg_virtual
	{
		OFFSET 0.000000 0.000000 0.000000
		CHANNELS 3 Zrotation Yrotation Xrotation
		JOINT RightUpLeg
		{
			OFFSET -8.479694 -4.795517 -0.379053
			CHANNELS 3 Zrotation Yrotation Xrotation
			JOINT RightLeg
			{
				OFFSET -0.484100 -32.551483 0.112903
				CHANNELS 3 Zrotation Yrotation Xrotation
				JOINT RightFoot
				{
					OFFSET -0.438985 -32.635651 -3.012681
					CHANNELS 3 Zrotation Yrotation Xrotation
					JOINT RightToeBase
					{
						OFFSET -0.970169 -13.225354 11.864223
						CHANNELS 3 Zrotation Yrotation Xrotation
						End Site
						{
							OFFSET 0.000000 0.000000 0.000000
						}
					}
				}
			}
		}
	}
	JOINT Spine_virtual
	{
		OFFSET 0.000000 0.000000 0.000000
		CHANNELS 3 Zrotation Yrotation Xrotation
		JOINT Spine
		{
			OFFSET 0.000000 7.722015 1.166203
			CHANNELS 3 Zrotation Yrotation Xrotation
			JOINT Spine1
			{
				OFFSET 0.000000 12.024086 0.248766
				CHANNELS 3 Zrotation Yrotation Xrotation
				JOINT Spine2
				{
					OFFSET -0.000000 11.503036 -0.491240
					CHANNELS 3 Zrotation Yrotation Xrotation
					JOINT Neck_virtual
					{
						OFFSET 0.000000 0.000000 0.000000
						CHANNELS 3 Zrotation Yrotation Xrotation
						JOINT Neck
						{
							OFFSET 0.000000 18.430687 -3.123054
							CHANNELS 3 Zrotation Yrotation Xrotation
							JOINT Head
							{
								OFFSET -0.000000 9.051071 1.034021
								CHANNELS 3 Zrotation Yrotation Xrotation
								End Site
								{
									OFFSET 0.000000 0.000000 0.000000
								}
							}
						}
					}
					JOINT LeftShoulder_virtual
					{
						OFFSET 0.000000 0.000000 0.000000
						CHANNELS 3 Zrotation Yrotation Xrotation
						JOINT LeftShoulder
						{
							OFFSET 6.197824 13.665230 -4.064723
							CHANNELS 3 Zrotation Yrotation Xrotation
							JOINT LeftArm
							{
								OFFSET 7.778132 -0.187073 -1.709282
								CHANNELS 3 Zrotation Yrotation Xrotation
								JOINT LeftForeArm
								{
									OFFSET 21.954697 0.000000 -2.041093
									CHANNELS 3 Zrotation Yrotation Xrotation
									JOINT LeftHand
									{
										OFFSET 22.992908 0.000000 -0.870901
										CHANNELS 3 Zrotation Yrotation Xrotation
										End Site
										{
											OFFSET 0.000000 0.000000 0.000000
										}
									}
								}
							}
						}
					}
					JOINT RightShoulder_virtual
					{
						OFFSET 0.000000 0.000000 0.000000
						CHANNELS 3 Zrotation Yrotation Xrotation
						JOINT RightShoulder
						{
							OFFSET -6.197824 13.665230 -4.064723
							CHANNELS 3 Zrotation Yrotation Xrotation
							JOINT RightArm
							{
								OFFSET -7.778132 -0.187073 -1.709282
								CHANNELS 3 Zrotation Yrotation Xrotation
								JOINT RightForeArm
								{
									OFFSET -21.954697 0.000000 -2.041093
									CHANNELS 3 Zrotation Yrotation Xrotation
									JOINT RightHand
									{
										OFFSET -22.992908 0.000000 -0.870901
										CHANNELS 3 Zrotation Yrotation Xrotation
										End Site
										{
											OFFSET 0.000000 0.000000 0.000000
										}
									}
								}
							}
						}
					}
				}
			}
		}
	}
}
MOTION
Frames: 7
Frame Time: 0.033333
15.338638 53.113663 -1.366487 -179.981563 -17.789165 179.783283 5.086765 -6.019170 3.010220 -1.600295 7.992476 -76.768102 6.800265 -3.542945 107.698997 -9.579316 -12.772845 -19.485476 0.000000 0.000000 0.000000 3.232828 -4.422978 6.280470 -2.020146 -9.186909 -28.683222 0.063906 0.258187 97.025480 0.924829 18.818008 -33.854741 0.000000 0.000000 0.000000 10.284048 -1.241481 -6.559727 -0.548208 4.325420 -0.895666 -0.486921 -4.018311 7.848697 -0.028444 0.071044 -0.035897 -0.397181 -3.222895 10.981334 -2.425144 2.330366 11.296547 0.000000 0.000000 0.000000 1.459136 -2.693080 6.018370 5.824891 1.903788 1.268804 18.509085 -41.893665 -34.902383 -161.023786 -73.248711 -170.938475 0.000000 0.000000 0.000000 -3.327105 -0.923534 5.584632 38.523643 14.048967 7.731390 30.683962 28.804223 2.488047 179.423551 57.553305 169.143433 0.000000 0.000000 0.000000 
15.530673 53.117718 -1.694352 179.907128 -16.991233 179.770292 5.271214 -5.363385 2.829112 -1.125519 7.373320 -76.263003 6.508187 -3.542094 107.859533 -9.571075 -12.851933 -19.385059 0.000000 0.000000 0.000000 3.364894 -4.103834 6.190480 -2.094412 -9.026471 -28.141655 0.003941 0.355726 96.914941 0.841620 18.671726 -33.906456 0.000000 0.000000 0.000000 10.279259 -0.992671 -6.733857 -0.312725 4.151389 -1.426512 -0.655681 -4.050958 7.864881 0.003344 0.101927 0.008938 -0.472220 -3.217863 10.850365 -2.665309 2.504130 11.815904 0.000000 0.000000 0.000000 1.374202 -2.733112 5.901660 5.885073 2.179852 1.313243 17.570610 -41.374151 -34.700920 -161.015931 -73.073981 -170.731233 0.000000 0.000000 0.000000 -3.399500 -1.002853 5.465148 38.512708 14.186784 8.029624 30.870006 27.384530 4.067203 179.088708 57.151925 169.082166 0.000000 0.000000 0.000000 
15.734339 53.146358 -1.945718 179.875026 -16.439721 179.916458 5.580330 -5.201458 2.524315 -0.643843 6.828226 -75.802129 6.330412 -3.478614 107.974656 -9.657208 -12.937800 -19.177447 0.000000 0.000000 0.000000 3.660890 -3.968285 5.844024 -2.273752 -8.904005 -27.673939 -0.029211 0.454877 96.779218 0.656170 18.548943 -34.041287 0.000000 0.000000 0.000000 10.237584 -0.890392 -7.113143 -0.046645 3.941900 -1.961934 -0.751174 -4.166050 7.836689 -0.029537 0.040436 -0.021727 -0.545874 -3.260109 10.882842 -3.078086 2.874391 12.272261 0.000000 0.000000 0.000000 1.376363 -2.912814 5.883003 5.980069 2.461876 1.324174 16.649645 -40.745746 -34.494504 -161.018855 -72.910664 -170.546873 0.000000 0.000000 0.000000 -3.480330 -0.936492 5.406562 38.632691 14.277564 8.311326 31.206974 25.902741 5.031493 179.090497 56.823342 169.272797 0.000000 0.000000 0.000000 
15.921013 53.208427 -2.175093 179.944872 -16.020315 179.747684 5.974926 -5.108606 2.390032 -0.333935 6.337944 -75.243181 6.285439 -3.415418 107.986507 -9.969386 -12.985012 -18.814632 0.000000 0.000000 0.000000 4.125804 -4.028469 5.632155 -2.558273 -8.801591 -27.039443 -0.038759 0.536408 96.524978 0.285987 18.521422 -34.281020 0.000000 0.000000 0.000000 10.217648 -0.872354 -7.278449 0.237289 3.752128 -2.335346 -0.764295 -4.221064 7.889170 0.023227 0.046175 0.011626 -0.664800 -3.384144 10.731580 -3.593011 3.263421 12.643913 0.000000 0.000000 0.000000 1.290571 -2.966727 5.798224 5.977312 2.634744 1.369595 15.929830 -40.142272 -34.294721 -160.988966 -72.774293 -170.427823 0.000000 0.000000 0.000000 -3.557192 -1.226327 5.445048 38.530340 14.516001 8.430429 31.829942 24.566614 5.451698 178.826606 56.606081 169.176573 0.000000 0.000000 0.000000 
16.055017 53.306992 -2.393784 179.877649 -15.723970 179.785305 6.269148 -4.959215 2.580765 -0.221059 6.092025 -75.172884 6.290278 -3.230952 107.790596 -10.129421 -13.001174 -18.412351 0.000000 0.000000 0.000000 4.604322 -3.852723 5.471574 -2.977204 -8.787083 -26.514796 -0.042250 0.600095 96.226840 0.092847 18.404703 -34.506683 0.000000 0.000000 0.000000 10.171897 -0.696095 -7.325012 0.436548 3.583866 -2.839998 -0.791840 -4.262575 7.883731 0.027999 0.036378 -0.001141 -0.655504 -3.375681 10.689319 -4.085502 3.553869 12.993601 0.000000 0.000000 0.000000 1.301844 -2.977001 5.840980 5.967214 2.723416 1.341741 15.287032 -39.610497 -34.049422 -160.977887 -72.816913 -170.339413 0.000000 0.000000 0.000000 -3.548837 -1.205846 5.372950 38.385236 14.530700 8.555270 32.625433 23.377436 5.421643 178.936736 56.411946 169.403882 0.000000 0.000000 0.000000 
16.099712 53.417809 -2.638571 179.920652 -15.676741 179.911909 6.608688 -4.797285 2.557233 -0.158429 6.003570 -75.055815 6.308326 -3.036196 107.680384 -10.186490 -13.008839 -17.914676 0.000000 0.000000 0.000000 5.251052 -3.599219 5.320013 -3.392290 -8.753582 -26.114762 -0.036797 0.613814 95.812869 -0.176861 18.277649 -34.770786 0.000000 0.000000 0.000000 10.268895 -0.538770 -7.282018 0.663139 3.392000 -3.454953 -0.806870 -4.310304 7.834717 0.022837 0.032771 0.008758 -0.756600 -3.508736 10.662351 -4.753726 4.033692 13.276296 0.000000 0.000000 0.000000 1.270871 -2.968526 5.871205 5.939102 2.792291 1.330032 14.712762 -39.078360 -33.653008 -160.815616 -72.800247 -170.485415 0.000000 0.000000 0.000000 -3.633640 -1.105479 5.419480 38.131136 14.574457 8.641963 33.448997 22.476631 5.244675 179.110974 56.317854 169.657418 0.000000 0.000000 0.000000 
16.059153 53.521774 -2.905981 179.895599 -15.803145 179.813828 6.766811 -4.656196 2.693076 -0.206207 6.029714 -74.921499 6.257464 -2.727021 107.678875 -10.000281 -13.157378 -17.452767 0.000000 0.000000 0.000000 5.744011 -3.496872 5.359755 -3.868309 -8.785053 -25.526241 -0.049553 0.642682 95.436731 -0.566521 18.273994 -35.106062 0.000000 0.000000 0.000000 10.427920 -0.385994 -7.108797 0.818081 3.269520 -3.985487 -0.875588 -4.290433 7.811307 0.006182 0.054452 0.001274 -0.768487 -3.369343 10.527185 -5.322001 4.289031 13.527111 0.000000 0.000000 0.000000 1.289052 -2.975730 5.856510 5.975797 2.759907 1.324631 14.358203 -38.546695 -33.216211 -160.814591 -72.797638 -170.535316 0.000000 0.000000 0.000000 -3.640484 -1.116715 5.296741 37.732192 14.652509 8.528211 34.353748 21.524475 5.118340 179.167009 56.290102 169.763696 0.000000 0.000000 0.000000 
